<svg xmlns="http://www.w3.org/2000/svg" enable-background="new 0 0 93 93" viewBox="0 0 93 93" id="comment"><path fill="#EAE6FC" d="M17.30045,85.7095h57.81191c0.75696,0,1.46317-0.41119,1.81905-1.07927
					c1.16519-2.18739,2.15973-4.40737,2.96248-6.53302c2.37232-6.2817,3.37184-13.52791,0.48225-19.58908
					c-1.72338-3.61484-5.05964-6.69763-9.04623-7.07726c-2.86683-0.27297-5.656,0.83821-8.41645,1.65865
					c-2.76041,0.82048-5.87806,1.328-8.41165-0.04087c-4.04533-2.1857-4.55548-7.82835-7.60254-11.2718
					c-2.27618-2.57225-5.82144-3.6949-9.25038-3.89468c-8.84703-0.51554-17.52934,4.64668-22.21761,12.16706
					c-4.68832,7.52032-5.61143,17.03651-3.52144,25.64861c0.76886,3.16826,1.95765,6.26917,3.64157,9.05056
					C15.91841,85.35461,16.59179,85.7095,17.30045,85.7095z"></path><path d="M91.5 86.20947h-8.77441c-.27637 0-.5-.22363-.5-.5s.22363-.5.5-.5H91.5c.27637 0 .5.22363.5.5S91.77637 86.20947 91.5 86.20947zM10.27441 86.20947H1.5c-.27637 0-.5-.22363-.5-.5s.22363-.5.5-.5h8.77441c.27637 0 .5.22363.5.5S10.55078 86.20947 10.27441 86.20947zM79.15234 86.20947H13.84766c-.27637 0-.5-.22363-.5-.5s.22363-.5.5-.5h65.30469c.27637 0 .5.22363.5.5S79.42871 86.20947 79.15234 86.20947z"></path><g><path fill="#FFF" d="M77.49984,51.77193v18.19241c0,2.75037-2.22015,4.97062-4.97062,4.97062H54.07185l-6.29619,7.57191
						c-0.66279,0.79527-1.88886,0.79527-2.55165,0l-6.29619-7.57191H20.47045c-2.75046,0-4.97062-2.22025-4.97062-4.97062V51.77193
						c0-2.73388,2.22015-4.97062,4.97062-4.97062h52.05877C75.27969,46.80131,77.49984,49.03805,77.49984,51.77193z"></path><circle cx="29.934" cy="60.501" r="3.938" fill="#D1D1D1"></circle><circle cx="46.5" cy="60.501" r="3.938" fill="#D1D1D1"></circle><circle cx="63.065" cy="60.501" r="3.938" fill="#D1D1D1"></circle><g><polygon fill="#D3DCE3" points="43.133 44.027 45.744 57.074 56.816 49.695 54.57 45.524 50.12 46.509 47.68 42.67"></polygon><polygon points="44.639 51.532 45.744 57.074 50.444 53.937"></polygon><polygon fill="#FFD200" points="69.071 20.121 56.969 49.337 56.822 49.692 54.565 45.525 50.124 46.514 47.682 42.674 43.139 44.025 43.287 43.669 55.388 14.453"></polygon><path fill="#FF6700" d="M71.26255,14.91807l-2.19163,5.20263l-13.68249-5.66747l2.19163-5.20263
						c0.67073-1.61928,2.52714-2.38823,4.14642-1.7175l7.81856,3.23856C71.16432,11.44238,71.93327,13.29879,71.26255,14.91807z"></path><path fill="#FFF" d="M70.26314,21.75953l-2.0241,4.8866c-0.22357,0.53976-0.84238,0.79608-1.38213,0.5725l-14.92192-6.18086
						c-0.53976-0.22358-0.79607-0.84238-0.5725-1.38214l2.0241-4.8866c0.22358-0.53976,0.84238-0.79608,1.38214-0.5725
						l14.92191,6.18086C70.23039,20.60097,70.48671,21.21977,70.26314,21.75953z"></path><path d="M72.5293,46.30126H58.76782l7.73999-18.68573l0.15723,0.06512c0.19043,0.0791,0.39063,0.11914,0.5957,0.11914
						c0.63281,0,1.19824-0.37793,1.44043-0.9624l1.41577-3.41907c0.00024-0.00061,0.00098-0.00073,0.00122-0.00134
						c0,0,0.00012-0.00171,0.00049-0.00256l0.60596-1.46326c0.15918-0.38477,0.15918-0.80811,0-1.19238
						c-0.15918-0.38477-0.45801-0.68408-0.84277-0.84326l-0.15479-0.06409l1.99756-4.74207
						c0.37598-0.90625,0.37598-1.90479,0-2.81152s-1.08203-1.61279-1.98828-1.98828l-7.81836-3.23828
						c-0.44922-0.18604-0.92188-0.28076-1.4043-0.28076c-1.49219,0-2.82422,0.89063-3.39453,2.26611l-1.99866,4.74469
						l-0.16052-0.06647c-0.77734-0.32227-1.71387,0.06982-2.03516,0.84277l-1.41699,3.42035v0.00006c0,0.00006,0,0.00006,0,0.00006
						l-0.60742,1.46625c-0.15918,0.38428-0.15918,0.80762,0,1.19238c0.15918,0.38428,0.45898,0.68359,0.84277,0.84277
						l0.15845,0.06561c-9.81874,23.71435-9.29939,22.35345-9.25806,22.56036l0.4353,2.17578H20.4707
						c-3.0166,0-5.4707,2.4541-5.4707,5.4707v18.19238c0,3.0166,2.4541,5.4707,5.4707,5.4707h18.22266l6.14648,7.39209
						c0.41113,0.49316,1.0166,0.77637,1.66016,0.77637s1.24902-0.2832,1.66016-0.77686l6.14648-7.3916H72.5293
						c3.0166,0,5.4707-2.4541,5.4707-5.4707V51.77197C78,48.75536,75.5459,46.30126,72.5293,46.30126z M58.04199,9.44189
						c0.41602-1.00293,1.38574-1.65137,2.47168-1.65137c0.35059,0,0.69434,0.06885,1.02148,0.20459l7.81836,3.23828
						c0.66016,0.27344,1.17383,0.78711,1.44727,1.44727c0.27344,0.65967,0.27344,1.38623,0.00098,2.04346l-1.99805,4.74414
						l-12.75879-5.28467L58.04199,9.44189z M51.82422,19.84716l0.41602-1.00439l1.45313,0.60205
						c0.0625,0.02588,0.12695,0.03809,0.19141,0.03809c0.19629,0,0.38184-0.11621,0.46191-0.30859
						c0.10547-0.25537-0.01563-0.54785-0.27051-0.65332l-1.45313-0.60205l1.22559-2.9585
						c0.08691-0.20947,0.28906-0.34473,0.51563-0.34473c0.07227,0,0.14453,0.01465,0.21289,0.04297l14.92188,6.18066
						c0.1377,0.05713,0.24512,0.16406,0.30176,0.30176c0.05762,0.1377,0.05664,0.28955,0,0.42725l-0.41565,1.00366l-1.45251-0.60181
						c-0.25293-0.104-0.54688,0.01514-0.65332,0.27051c-0.10547,0.25537,0.01563,0.54785,0.27051,0.65332l1.45276,0.60193
						l-1.22522,2.95862c-0.11523,0.27539-0.44824,0.41943-0.72949,0.30225l-14.92188-6.18115
						c-0.1377-0.05713-0.24414-0.16406-0.30176-0.30176C51.76758,20.13622,51.76758,19.98486,51.82422,19.84716z M65.58386,27.23278
						l-8.82214,21.29749c-0.05562-0.10302-1.74332-3.22905-1.63574-3.02979l1.50488-3.63428
						c0.10547-0.25537-0.01563-0.54785-0.27051-0.65332c-0.25586-0.10498-0.54688,0.01611-0.65332,0.27051l-1.49377,3.6073
						l-3.8584,0.85455c-0.06624-0.10421-2.25459-3.54706-2.11609-3.32916l1.49365-3.6073
						c0.10547-0.25537-0.01563-0.54785-0.27051-0.65332c-0.25488-0.10498-0.54688,0.01611-0.65332,0.27051l-1.50525,3.63501
						l-3.29944,0.98499l8.82178-21.2981L65.58386,27.23278z M56.16016,49.53124l-5.76709,3.84332l-5.31982-2.20355l-1.35938-6.79504
						c1.36563-0.40635,3.88053-1.15466,3.74805-1.11523c0.18215,0.28633,2.30176,3.61825,2.23804,3.51807l0.0022,0.00342
						c0.11328,0.17725,0.32715,0.26563,0.53027,0.21973l4.07324-0.90674C54.36431,46.20387,56.28278,49.75845,56.16016,49.53124z
						 M46.08789,56.24316l-0.77539-3.89063l4.0752,1.68799L46.08789,56.24316z M77,69.96435c0,2.46533-2.00586,4.4707-4.4707,4.4707
						H54.07227c-0.14844,0-0.28906,0.06592-0.38477,0.18018L47.39063,82.187c-0.44043,0.52979-1.34375,0.52783-1.78223,0
						l-6.2959-7.57178c-0.0957-0.11426-0.23633-0.18018-0.38477-0.18018H20.4707c-2.46484,0-4.4707-2.00537-4.4707-4.4707V51.77197
						c0-2.46533,2.00586-4.4707,4.4707-4.4707h22.80835l1.97485,9.87061c0.03223,0.16357,0.14453,0.2998,0.29883,0.36377
						c0.06152,0.02539,0.12695,0.03809,0.19141,0.03809c0.09766,0,0.19434-0.02832,0.27734-0.08398l11.07227-7.37891
						c0.00269-0.00183,0.00415-0.00476,0.00684-0.00665c0.01367-0.00922,0.02161-0.02301,0.0343-0.03357
						c0.05066-0.04309,0.09009-0.0932,0.11926-0.15009c0.00781-0.01459,0.02368-0.02222,0.03003-0.03772l1.06934-2.58154H72.5293
						c2.46484,0,4.4707,2.00537,4.4707,4.4707V69.96435z"></path></g><g><path fill="#2E1C66" d="M27.25391,33.24609c-1.30371,0-2.36523-1.06104-2.36523-2.36523c0-0.13818-0.1123-0.25-0.25-0.25
				s-0.25,0.11182-0.25,0.25c0,1.3042-1.06152,2.36523-2.36523,2.36523c-0.1377,0-0.25,0.11182-0.25,0.25s0.1123,0.25,0.25,0.25
				c1.30371,0,2.36523,1.06104,2.36523,2.36523c0,0.13818,0.1123,0.25,0.25,0.25s0.25-0.11182,0.25-0.25
				c0-1.3042,1.06152-2.36523,2.36523-2.36523c0.1377,0,0.25-0.11182,0.25-0.25S27.3916,33.24609,27.25391,33.24609z
				 M24.63867,34.9519c-0.28833-0.64758-0.80823-1.16748-1.45581-1.45581c0.64758-0.28833,1.16748-0.80829,1.45581-1.45587
				c0.28833,0.64758,0.80835,1.16754,1.45581,1.45587C25.44702,33.78442,24.927,34.30431,24.63867,34.9519z"></path></g><g><path fill="#FF6700" d="M73.62012,37.53808c-1.30371,0-2.36426-1.06104-2.36426-2.36475c0-0.13818-0.1123-0.25-0.25-0.25
				s-0.25,0.11182-0.25,0.25c0,1.30371-1.06152,2.36475-2.36523,2.36475c-0.1377,0-0.25,0.11182-0.25,0.25s0.1123,0.25,0.25,0.25
				c1.30371,0,2.36523,1.06104,2.36523,2.36523c0,0.13818,0.1123,0.25,0.25,0.25s0.25-0.11182,0.25-0.25
				c0-1.3042,1.06055-2.36523,2.36426-2.36523c0.1377,0,0.25-0.11182,0.25-0.25S73.75781,37.53808,73.62012,37.53808z
				 M71.00586,39.24383c-0.28833-0.64752-0.80823-1.16742-1.45581-1.45575c0.64758-0.28827,1.16748-0.80817,1.45581-1.45557
				c0.28833,0.6474,0.80811,1.1673,1.45532,1.45557C71.81396,38.07641,71.29419,38.59631,71.00586,39.24383z"></path></g><g><path fill="#00CE4A" d="M44.11523,12.45947c-1.30371,0-2.36523-1.06104-2.36523-2.36523c0-0.13818-0.1123-0.25-0.25-0.25
				s-0.25,0.11182-0.25,0.25c0,1.3042-1.06152,2.36523-2.36523,2.36523c-0.1377,0-0.25,0.11182-0.25,0.25s0.1123,0.25,0.25,0.25
				c1.30371,0,2.36523,1.06104,2.36523,2.36523c0,0.13818,0.1123,0.25,0.25,0.25s0.25-0.11182,0.25-0.25
				c0-1.3042,1.06152-2.36523,2.36523-2.36523c0.1377,0,0.25-0.11182,0.25-0.25S44.25293,12.45947,44.11523,12.45947z
				 M41.5,14.16528c-0.28833-0.64758-0.80823-1.16748-1.45581-1.45581c0.64758-0.28833,1.16748-0.80829,1.45581-1.45587
				c0.28833,0.64758,0.80835,1.16754,1.45581,1.45587C42.30835,12.9978,41.78833,13.51769,41.5,14.16528z"></path></g></g></svg>